<svg width="49" height="59" viewBox="0 0 49 59" fill="none" xmlns="http://www.w3.org/2000/svg">
<path d="M46.5313 11.832C46.1397 11.6781 45.7194 11.6105 45.2993 11.634C44.7293 11.674 44.2703 11.905 43.9973 12.284C42.3933 14.532 41.0783 18.777 40.0183 22.189C39.5323 23.766 38.8783 25.877 38.4063 26.879C37.9133 24.072 38.4703 13.789 38.6863 9.82899L38.6893 9.76499C38.8393 7.01399 38.8593 6.53099 38.8273 6.31899C38.5893 4.80999 37.9843 3.81899 37.0283 3.37599C36.0623 2.92599 34.8083 3.12599 33.4563 3.93899C32.7793 4.34899 32.5913 5.75499 32.0103 12.129L32.0083 12.157C31.6883 15.659 30.9503 23.723 30.0433 25.067C29.0203 23.187 27.6123 12.512 27.0043 7.89099C26.5793 4.65499 26.3313 2.79699 26.1643 2.23599C25.8143 1.05999 24.3343 0.0599899 22.8693 0.00398986C21.6493 -0.0560101 20.6493 0.56399 20.1713 1.64199C19.2773 2.63699 19.5933 5.93399 20.5813 13.744C21.0513 17.462 22.0213 25.139 21.4113 26.001C20.1923 25.868 18.1013 21.059 15.1963 11.702C14.3803 9.08199 14.1283 8.29399 13.8783 7.94899C13.3843 6.74699 11.7063 5.81999 10.2023 5.92499C10.0757 5.9338 9.94985 5.95016 9.82528 5.97399C9.03828 6.12999 7.24128 6.85499 7.62528 10.2C8.68528 14.837 9.83828 18.241 10.9563 21.546L10.9793 21.612C11.6483 23.592 12.2813 25.462 12.8693 27.537C14.2543 32.437 13.7153 35.477 13.7093 35.512C13.6633 35.824 13.5663 36.015 13.4213 36.082C13.3595 36.1087 13.2935 36.1239 13.2263 36.127C12.7863 36.157 12.1283 35.867 11.7893 35.677C11.0133 34.195 7.15328 27.133 3.65528 26.153L3.52928 26.116L3.40228 26.128C2.11928 26.249 1.17628 26.734 0.599276 27.569C-0.314724 28.889 0.0642761 30.571 0.155276 30.909L0.207276 31.029C0.235276 31.08 3.04128 36.194 3.47528 38.573C3.84928 40.613 5.78628 42.823 7.34428 44.599L7.40828 44.672C7.91628 45.252 8.35428 45.755 8.70028 46.22C13.2193 50.933 20.3653 54.897 20.4233 54.93C21.3153 55.587 21.8103 56.223 21.8633 56.77C21.8877 56.9768 21.8302 57.1849 21.7033 57.35L21.5483 57.512L22.5363 58.472L41.3893 57.148L42.1933 53.464C44.6793 43.062 44.1603 34.192 44.1513 34.134C44.1613 33.807 44.8573 30.651 45.4173 28.101L45.4343 28.036C46.5513 22.956 47.9393 16.636 48.2063 14.233C48.3223 13.205 47.6643 12.261 46.5313 11.832Z" fill="#3B4262"/>
</svg>
