<svg width="48" height="48" viewBox="0 0 48 48" fill="none" xmlns="http://www.w3.org/2000/svg">
<path d="M44.8393 12.2122C44.1973 4.11617 35.1053 4.94317 35.1053 4.94317C31.2683 -1.82183 25.2733 3.07817 25.2733 3.07817C20.6673 -3.55183 14.8933 2.59217 14.8933 2.59217C4.93629 1.51817 5.32229 9.65817 5.32229 9.65817C5.08829 12.2462 6.72529 20.2512 6.72529 20.2512C5.24829 15.6372 2.04529 19.4672 2.04529 19.4672C-1.89471 25.5452 1.07029 28.8722 1.07029 28.8722C6.40029 35.1182 17.7583 42.6152 17.7583 42.6152C21.8713 44.9712 20.1313 47.0722 20.1313 47.0722L45.0073 42.9622L45.5783 38.2442C49.3603 26.8082 44.8393 12.2122 44.8393 12.2122Z" fill="#3B4262"/>
</svg>
