<svg width="51" height="58" viewBox="0 0 51 58" fill="none" xmlns="http://www.w3.org/2000/svg">
<path d="M13.659 25.5083L19.671 17.0933C17.172 16.6783 12.583 16.5863 8.825 20.3283C2.9 26.2273 0.5 38.9693 0 42.0543L15.058 57.0463C17.769 56.8143 29.771 55.2193 41.337 43.7063C41.459 43.4573 44.277 41.3853 41.973 39.0923C40.873 37.9973 39.054 38.0183 37.931 39.1363C37.359 39.7063 36.47 39.7133 35.91 39.1563C35.35 38.5993 35.358 37.7133 35.93 37.1443L40.017 33.0753C42.093 31.0083 40.136 27.5203 37.237 28.3583L33.892 31.2093C33.281 31.7393 32.372 31.6483 31.87 31.0693C31.351 30.4723 31.462 29.5663 32.053 29.0563C43.74 18.8483 42.033 20.0773 49.553 13.0613C52.362 10.7323 48.828 6.61432 46.06 8.97132L27.87 25.2563C27.341 25.7043 26.53 25.7133 26.01 25.2363C25.409 24.7193 25.395 23.9743 25.788 23.3863L38.475 3.75032C40.329 1.25032 36.68 -1.52668 34.726 0.993323L15.968 27.1133C15.516 27.7633 14.604 27.9133 13.983 27.4583C13.8315 27.3533 13.7026 27.2189 13.604 27.0632C13.5054 26.9075 13.4391 26.7335 13.409 26.5517C13.3789 26.3698 13.3856 26.1837 13.4287 26.0045C13.4718 25.8253 13.5505 25.6566 13.66 25.5083H13.659Z" fill="#3B4262"/>
</svg>
